# xmcd
#
# Track frame offsets:
#	150
#	13297
#	25730
#	37457
#	55325
#	66579
#	76264
#	88658
#	101729
#	116272
#	127600
#	144915
#
# Disc length: 2108 seconds
#
# Revision: 1
# Processed by: cddbd v1.5PL3 Copyright (c) Steve Scherf et al.
# Submitted via: audiograbber 1.83.01
#
DISCID=9f083a0c
DTITLE=East River Boys - For Your Poison Love
DYEAR=1999
DGENRE=Bluegrass
TTITLE0=Kentucky Girl
TTITLE1=There is a Trap
TTITLE2=Poison Love
TTITLE3=Ramblin' Letters
TTITLE4=Arab Bounce
TTITLE5=Man in the Middle
TTITLE6=Iron Curtain
TTITLE7=Julie-Ann
TTITLE8=Let's Be Sweethearts Again
TTITLE9=Ashes of Love
TTITLE10=I Just Think I'll Go Away
TTITLE11=God's Not Dead
EXTD=
EXTT0=
EXTT1=
EXTT2=
EXTT3=
EXTT4=
EXTT5=
EXTT6=
EXTT7=
EXTT8=
EXTT9=
EXTT10=
EXTT11=
PLAYORDER=
